<svg xmlns="http://www.w3.org/2000/svg" xmlns:xlink="http://www.w3.org/1999/xlink" fill="none" version="1.1" width="16" height="16" viewBox="0 0 16 16"><defs><clipPath id="master_svg0_1_2063"><rect x="0" y="0" width="16" height="16" rx="0"/></clipPath></defs><g clip-path="url(#master_svg0_1_2063)"><g transform="matrix(1,0,0,-1,0,32.68749237060547)"><g><path d="M5.13619,31.562546185302736Q4.94942,32.031246185302734,4.54475,32.218746185302734Q4.10895,32.406246185302734,3.64202,32.312546185302736L0.902724,31.562546185302736Q0.0622568,31.249946185302733,0,30.343746185302734Q0.0311284,26.437546185302736,1.89883,23.281246185302734Q3.76654,20.124996185302734,6.91051,18.249996185302734Q10.0545,16.374996185302734,13.9455,16.343746185302734Q14.8482,16.406246185302734,15.1595,17.249996185302734L15.9066,19.999996185302734Q16,20.468746185302734,15.8132,20.906246185302734Q15.6265,21.312496185302734,15.1595,21.499996185302734L12.1712,22.749996185302734Q11.3307,23.031246185302734,10.7393,22.374996185302734L9.49416,20.843746185302734Q7.84436,21.624996185302734,6.53696,22.906246185302734Q5.2607,24.218746185302734,4.48249,25.874996185302734L6.00778,27.124946185302733Q6.66148,27.718746185302734,6.38132,28.562546185302736L5.13619,31.562546185302736Z" fill="#9CA3AF" fill-opacity="1" style="mix-blend-mode:passthrough"/></g></g></g></svg>