<svg xmlns="http://www.w3.org/2000/svg" xmlns:xlink="http://www.w3.org/1999/xlink" fill="none" version="1.1" width="10" height="24" viewBox="0 0 10 24"><defs><clipPath id="master_svg0_1_2078"><rect x="0" y="3" width="10" height="16" rx="0"/></clipPath></defs><g><rect x="0" y="0" width="10" height="24" rx="0" fill="#000000" fill-opacity="0" style="mix-blend-mode:passthrough"/><g clip-path="url(#master_svg0_1_2078)"><g transform="matrix(1,0,0,-1,0,38.74997329711914)"><g><path d="M2.26027,26.03123664855957L2.26027,19.37498664855957L2.26027,26.03123664855957L2.26027,19.37498664855957L6.23288,19.37498664855957L6.23288,26.03123664855957L9.21233,26.03123664855957L9.82877,29.09373664855957L6.23288,29.09373664855957L6.23288,30.156286648559572Q6.23288,31.343786648559572,6.81507,31.87498664855957Q7.39726,32.40628664855957,8.73288,32.40628664855957Q9.58904,32.40628664855957,10,32.34378664855957L10,35.12498664855957Q9.58904,35.21878664855957,8.86986,35.31248664855957Q8.15069,35.37498664855957,7.60274,35.37498664855957Q2.19178,35.43748664855957,2.26027,30.406286648559572L2.26027,29.06248664855957L0,29.06248664855957L0,26.03123664855957L2.26027,26.03123664855957Z" fill="#9CA3AF" fill-opacity="1" style="mix-blend-mode:passthrough"/></g></g></g></g></svg>