<svg xmlns="http://www.w3.org/2000/svg" xmlns:xlink="http://www.w3.org/1999/xlink" fill="none" version="1.1" width="14" height="24" viewBox="0 0 14 24"><defs><clipPath id="master_svg0_1_2088"><rect x="0" y="3" width="14" height="16" rx="0"/></clipPath></defs><g><rect x="0" y="0" width="14" height="24" rx="0" fill="#000000" fill-opacity="0" style="mix-blend-mode:passthrough"/><g clip-path="url(#master_svg0_1_2088)"><g transform="matrix(1,0,0,-1,0,36.75)"><g><path d="M7,28.9688Q5.46875,28.9375,4.46875,27.90625Q3.4375,26.90625,3.40625,25.375Q3.4375,23.84375,4.46875,22.84375Q5.46875,21.8125,7,21.78125Q8.53125,21.8125,9.53125,22.84375Q10.5625,23.84375,10.5938,25.375Q10.5625,26.90625,9.53125,27.90625Q8.53125,28.9375,7,28.9688ZM7,23.03125Q6,23.0625,5.34375,23.71875Q4.6875,24.375,4.65625,25.375Q4.6875,26.375,5.34375,27.03125Q6,27.6875,7,27.71875Q8,27.6875,8.65625,27.03125Q9.3125,26.375,9.34375,25.375Q9.3125,24.375,8.65625,23.71875Q8,23.0625,7,23.03125ZM11.5938,29.125Q11.5,28.34375,10.75,28.28125Q9.96875,28.34375,9.90625,29.125Q9.90625,29.4688,10.1562,29.7188Q10.375,29.9375,10.75,29.9375Q11.0938,29.9375,11.3438,29.7188Q11.5625,29.4688,11.5938,29.125ZM13.9688,28.25Q13.9688,29.9688,12.8125,31.1875Q11.5938,32.3438,9.90625,32.3438Q9.28125,32.375,8.125,32.375Q7,32.375,5.875,32.375Q4.71875,32.375,4.125,32.3438Q2.4375,32.3438,1.1875,31.1875Q0.03125,29.9688,0.0625,28.28125Q0,27.65625,0,26.5Q0,25.375,0,24.25Q0,23.125,0.0625,22.5Q0.03125,20.78125,1.1875,19.5625Q2.40625,18.40625,4.125,18.4375Q4.71875,18.40625,5.875,18.375Q7,18.375,8.125,18.375Q9.28125,18.40625,9.90625,18.4375Q11.5938,18.40625,12.8125,19.5625Q13.9688,20.78125,13.9688,22.5Q14,23.125,14,24.25Q14,25.375,14,26.5Q14,27.65625,13.9688,28.28125L13.9688,28.25ZM12.4688,21.25Q12.0625,20.3125,11.125,19.90625Q10.5,19.6875,9.4375,19.65625Q8.375,19.625,7.5,19.625Q7.21875,19.625,7,19.625Q6.78125,19.625,6.5,19.625Q5.625,19.625,4.5625,19.65625Q3.53125,19.6875,2.875,19.90625Q1.9375,20.3125,1.53125,21.25Q1.3125,21.90625,1.28125,22.9375Q1.25,24,1.25,24.875Q1.25,25.15625,1.25,25.375Q1.25,25.59375,1.25,25.875Q1.25,26.75,1.28125,27.8125Q1.3125,28.875,1.53125,29.5Q1.9375,30.4375,2.875,30.8438Q3.53125,31.0625,4.5625,31.0938Q5.625,31.1562,6.5,31.125Q6.78125,31.125,7,31.125Q7.21875,31.125,7.5,31.125Q8.375,31.125,9.4375,31.0938Q10.5,31.0625,11.125,30.8438Q12.0625,30.4375,12.4688,29.5Q12.6875,28.875,12.7188,27.8125Q12.7812,26.75,12.75,25.875Q12.75,25.59375,12.75,25.375Q12.75,25.15625,12.75,24.875Q12.7812,24,12.7188,22.9375Q12.6875,21.875,12.4688,21.25Z" fill="#9CA3AF" fill-opacity="1" style="mix-blend-mode:passthrough"/></g></g></g></g></svg>