<svg xmlns="http://www.w3.org/2000/svg" xmlns:xlink="http://www.w3.org/1999/xlink" fill="none" version="1.1" width="14" height="24" viewBox="0 0 14 24"><defs><clipPath id="master_svg0_1_2093"><rect x="0" y="3" width="14" height="16" rx="0"/></clipPath></defs><g><rect x="0" y="0" width="14" height="24" rx="0" fill="#000000" fill-opacity="0" style="mix-blend-mode:passthrough"/><g clip-path="url(#master_svg0_1_2093)"><g transform="matrix(1,0,0,-1,0,34.749969482421875)"><g><path d="M3.11111,17.374984741210938L0.217778,17.374984741210938L3.11111,17.374984741210938L0.217778,17.374984741210938L0.217778,26.718734741210938L3.11111,26.718734741210938L3.11111,17.374984741210938ZM1.68,27.999984741210938Q0.964444,28.03128474121094,0.497778,28.499984741210938Q0.0311111,28.96878474121094,0,29.687484741210938Q0.0311111,30.656184741210936,0.84,31.156184741210936Q1.68,31.59378474121094,2.52,31.156184741210936Q3.32889,30.656184741210936,3.36,29.687484741210938Q3.32889,28.96878474121094,2.86222,28.499984741210938Q2.39556,28.03128474121094,1.68,27.999984741210938ZM13.9378,17.374984741210938L11.0444,17.374984741210938L13.9378,17.374984741210938L11.0444,17.374984741210938L11.0444,21.937484741210938Q11.1067,22.781234741210938,10.8578,23.562484741210938Q10.6089,24.343734741210938,9.55111,24.406234741210938Q8.46222,24.374984741210938,8.12,23.656234741210938Q7.77778,22.937484741210938,7.80889,21.999984741210938L7.80889,17.374984741210938L4.91556,17.374984741210938L4.91556,26.718734741210938L7.71556,26.718734741210938L7.71556,25.437484741210938L7.74667,25.437484741210938Q8.02667,26.031234741210938,8.71111,26.468734741210938Q9.42667,26.937484741210938,10.4844,26.968734741210938Q12.6,26.906234741210938,13.3156,25.687484741210938Q14,24.437484741210938,13.9378,22.499984741210938L13.9378,17.374984741210938Z" fill="#9CA3AF" fill-opacity="1" style="mix-blend-mode:passthrough"/></g></g></g></g></svg>