<svg xmlns="http://www.w3.org/2000/svg" xmlns:xlink="http://www.w3.org/1999/xlink" fill="none" version="1.1" width="16" height="24" viewBox="0 0 16 24"><defs><clipPath id="master_svg0_1_2083"><rect x="0" y="3" width="16" height="16" rx="0"/></clipPath></defs><g><rect x="0" y="0" width="16" height="24" rx="0" fill="#000000" fill-opacity="0" style="mix-blend-mode:passthrough"/><g clip-path="url(#master_svg0_1_2083)"><g transform="matrix(1,0,0,-1,0,35.75)"><g><path d="M14.3438,27.625Q14.375,27.40625,14.375,27.21875Q14.375,25,13.2812,22.875Q12.2188,20.75,10.125,19.34375Q8.0625,17.9375,5.03125,17.875Q2.21875,17.90625,0,19.34375Q0.375,19.3125,0.78125,19.3125Q3.125,19.34375,4.875,20.71875Q3.75,20.75,2.9375,21.375Q2.125,22,1.8125,22.96875Q2.09375,22.9375,2.40625,22.9375Q2.875,22.9375,3.28125,23.03125Q2.125,23.28125,1.40625,24.15625Q0.6875,25.03125,0.65625,26.25L0.65625,26.3125Q1.3125,25.9375,2.125,25.875Q0.75,26.84375,0.65625,28.625Q0.6875,29.5312,1.125,30.2812Q2.34375,28.7812,4.09375,27.875Q5.8125,26.96875,7.875,26.84375Q7.8125,27.21875,7.8125,27.59375Q7.84375,28.9688,8.75,29.9062Q9.6875,30.8438,11.0625,30.875Q12.5312,30.8438,13.4688,29.8438Q14.5938,30.0625,15.5625,30.625Q15.1562,29.4688,14.125,28.8125Q15.0938,28.9375,16,29.3438Q15.3125,28.3438,14.3438,27.625Z" fill="#9CA3AF" fill-opacity="1" style="mix-blend-mode:passthrough"/></g></g></g></g></svg>