<svg xmlns="http://www.w3.org/2000/svg" xmlns:xlink="http://www.w3.org/1999/xlink" fill="none" version="1.1" width="22.5" height="36" viewBox="0 0 22.5 36"><defs><clipPath id="master_svg0_1_2048"><rect x="0" y="3" width="22.5" height="30" rx="0"/></clipPath></defs><g><rect x="0" y="0" width="22.5" height="36" rx="0" fill="#000000" fill-opacity="0" style="mix-blend-mode:passthrough"/><g clip-path="url(#master_svg0_1_2048)"><g transform="matrix(1,0,0,-1,0,67.2890625)"><g><path d="M11.25,63.64453125Q9.375,63.58593125,7.96875,62.58983125Q6.5625,61.53513125,5.97656,59.89453125L3.75,59.89453125Q2.16797,59.83593125,1.11328,58.781231250000005Q0.0585938,57.72653125,0,56.14453125L0,37.39453125Q0.0585938,35.81250125,1.11328,34.75781125Q2.16797,33.70312505,3.75,33.64453125L18.75,33.64453125Q20.332,33.70312505,21.3867,34.75781125Q22.4414,35.81250125,22.5,37.39453125L22.5,56.14453125Q22.4414,57.72653125,21.3867,58.781231250000005Q20.332,59.83593125,18.75,59.89453125L16.582,59.89453125Q15.9375,61.53513125,14.5312,62.58983125Q13.125,63.58593125,11.25,63.64453125ZM11.25,59.89453125Q12.0703,59.89453125,12.5977,59.36723125Q13.125,58.83983125,13.125,58.01953125Q13.125,57.19923125,12.5977,56.67183125Q12.0703,56.14453125,11.25,56.14453125Q10.4297,56.14453125,9.90234,56.67183125Q9.375,57.19923125,9.375,58.01953125Q9.375,58.83983125,9.90234,59.36723125Q10.4297,59.89453125,11.25,59.89453125ZM4.21875,47.70703125Q4.33594,48.99613125,5.625,49.11333125Q6.91406,48.99613125,7.03125,47.70703125Q6.91406,46.41793125,5.625,46.30073125Q4.33594,46.41793125,4.21875,47.70703125ZM10.3125,48.64453125L17.8125,48.64453125L10.3125,48.64453125L17.8125,48.64453125Q18.6914,48.58593125,18.75,47.70703125Q18.6914,46.82813125,17.8125,46.76953125L10.3125,46.76953125Q9.43359,46.82813125,9.375,47.70703125Q9.43359,48.58593125,10.3125,48.64453125ZM4.21875,42.08203125Q4.33594,43.37109125,5.625,43.48828125Q6.91406,43.37109125,7.03125,42.08203125Q6.91406,40.79297125,5.625,40.67578125Q4.33594,40.79297125,4.21875,42.08203125ZM9.375,42.08203125Q9.43359,42.96094125,10.3125,43.01953125L17.8125,43.01953125Q18.6914,42.96094125,18.75,42.08203125Q18.6914,41.20312125,17.8125,41.14453125L10.3125,41.14453125Q9.43359,41.20312125,9.375,42.08203125Z" fill="#000000" fill-opacity="1" style="mix-blend-mode:passthrough"/></g></g></g></g></svg>