<svg xmlns="http://www.w3.org/2000/svg" xmlns:xlink="http://www.w3.org/1999/xlink" fill="none" version="1.1" width="30" height="36" viewBox="0 0 30 36"><defs><clipPath id="master_svg0_1_2043"><rect x="0" y="3" width="30" height="30" rx="0"/></clipPath></defs><g><rect x="0" y="0" width="30" height="36" rx="0" fill="#000000" fill-opacity="0" style="mix-blend-mode:passthrough"/><g clip-path="url(#master_svg0_1_2043)"><g transform="matrix(1,0,0,-1,0,67.2890625)"><g><path d="M23.3789,41.14453125Q22.3828,42.84375125,20.6836,43.83983125Q18.9844,44.89453125,16.875,44.89453125L13.125,44.89453125Q11.0156,44.89453125,9.31641,43.83983125Q7.61719,42.84375125,6.62109,41.14453125Q8.20312,39.38672125,10.3125,38.39062125Q12.4805,37.39453125,15,37.39453125Q17.5195,37.39453125,19.6875,38.39062125Q21.7969,39.38672125,23.3789,41.14453125ZM0,48.64453125Q0.0585938,52.746131250000005,1.99219,56.14453125Q3.98438,59.542931249999995,7.5,61.65233125Q11.0742,63.64453125,15,63.64453125Q18.9258,63.64453125,22.5,61.65233125Q26.0156,59.542931249999995,28.0078,56.14453125Q29.9414,52.746131250000005,30,48.64453125Q29.9414,44.54293125,28.0078,41.14453125Q26.0156,37.74609125,22.5,35.63672125Q18.9258,33.64453125,15,33.64453125Q11.0742,33.64453125,7.5,35.63672125Q3.98438,37.74609125,1.99219,41.14453125Q0.0585938,44.54293125,0,48.64453125ZM15,47.70703125Q17.4023,47.76563125,18.6328,49.81643125Q19.8047,51.92573125,18.6328,54.03513125Q17.4023,56.08593125,15,56.14453125Q12.5977,56.08593125,11.3672,54.03513125Q10.1953,51.92573125,11.3672,49.81643125Q12.5977,47.76563125,15,47.70703125Z" fill="#000000" fill-opacity="1" style="mix-blend-mode:passthrough"/></g></g></g></g></svg>