<svg xmlns="http://www.w3.org/2000/svg" xmlns:xlink="http://www.w3.org/1999/xlink" fill="none" version="1.1" width="37.5" height="36" viewBox="0 0 37.5 36"><defs><clipPath id="master_svg0_1_2038"><rect x="0" y="3" width="37.5" height="30" rx="0"/></clipPath></defs><g><rect x="0" y="0" width="37.5" height="36" rx="0" fill="#000000" fill-opacity="0" style="mix-blend-mode:passthrough"/><g clip-path="url(#master_svg0_1_2038)"><g transform="matrix(1,0,0,-1,0,67.2890625)"><g><path d="M8.4375,63.64453125Q11.0742,63.58593125,12.4805,61.30073125Q13.7695,58.95703125,12.4805,56.61333125Q11.0742,54.32813125,8.4375,54.26953125Q5.80078,54.32813125,4.39453,56.61333125Q3.10547,58.95703125,4.39453,61.30073125Q5.80078,63.58593125,8.4375,63.64453125ZM30,63.64453125Q32.6367,63.58593125,34.043,61.30073125Q35.332,58.95703125,34.043,56.61333125Q32.6367,54.32813125,30,54.26953125Q27.3633,54.32813125,25.957,56.61333125Q24.668,58.95703125,25.957,61.30073125Q27.3633,63.58593125,30,63.64453125ZM0,46.12503125Q0.0585938,48.82033125,1.81641,50.57813125Q3.57422,52.33593125,6.26953,52.39453125L8.73047,52.39453125Q10.1367,52.39453125,11.3672,51.808631250000005Q11.25,51.16403125,11.25,50.51953125Q11.3672,47.06253125,13.7695,44.89453125L1.23047,44.89453125Q0.117188,45.01173125,0,46.12503125ZM23.7305,44.89453125Q26.1328,47.06253125,26.25,50.51953125Q26.25,51.16403125,26.1328,51.808631250000005Q27.3633,52.39453125,28.7695,52.39453125L31.2305,52.39453125Q33.9258,52.33593125,35.6836,50.57813125Q37.4414,48.82033125,37.5,46.12503125Q37.3828,45.01173125,36.2695,44.89453125L23.7305,44.89453125ZM13.125,50.51953125Q13.125,52.042931249999995,13.8867,53.33203125Q14.6484,54.621131250000005,15.9375,55.382831249999995Q17.2852,56.14453125,18.75,56.14453125Q20.2148,56.14453125,21.5625,55.382831249999995Q22.8516,54.621131250000005,23.6133,53.33203125Q24.375,52.042931249999995,24.375,50.51953125Q24.375,48.99613125,23.6133,47.70703125Q22.8516,46.41793125,21.5625,45.65623125Q20.2148,44.89453125,18.75,44.89453125Q17.2852,44.89453125,15.9375,45.65623125Q14.6484,46.41793125,13.8867,47.70703125Q13.125,48.99613125,13.125,50.51953125ZM7.5,35.22656125Q7.55859,38.50781125,9.78516,40.73437125Q12.0117,42.96094125,15.293,43.01953125L22.207,43.01953125Q25.4883,42.96094125,27.7148,40.73437125Q29.9414,38.50781125,30,35.22656125Q29.8828,33.76171925,28.418,33.64453125L9.08203,33.64453125Q7.61719,33.76171925,7.5,35.22656125Z" fill="#000000" fill-opacity="1" style="mix-blend-mode:passthrough"/></g></g></g></g></svg>