<svg xmlns="http://www.w3.org/2000/svg" xmlns:xlink="http://www.w3.org/1999/xlink" fill="none" version="1.1" width="30" height="36" viewBox="0 0 30 36"><defs><clipPath id="master_svg0_1_2058"><rect x="0" y="3" width="30" height="30" rx="0"/></clipPath></defs><g><rect x="0" y="0" width="30" height="36" rx="0" fill="#000000" fill-opacity="0" style="mix-blend-mode:passthrough"/><g clip-path="url(#master_svg0_1_2058)"><g transform="matrix(1,0,0,-1,0,63.5390625)"><g><path d="M3.75,58.01953125Q2.16797,57.96093125,1.11328,56.906231250000005Q0.0585938,55.85153125,0,54.26953125L0,35.51953125Q0.0585938,33.93750125,1.11328,32.88281125Q2.16797,31.82812505,3.75,31.76953125L26.25,31.76953125Q27.832,31.82812505,28.8867,32.88281125Q29.9414,33.93750125,30,35.51953125L30,48.64453125Q29.9414,50.22653125,28.8867,51.281231250000005Q27.832,52.33593125,26.25,52.39453125L4.6875,52.39453125Q3.80859,52.45313125,3.75,53.33203125Q3.80859,54.21093125,4.6875,54.26953125L26.25,54.26953125Q27.0703,54.26953125,27.5977,54.79683125Q28.125,55.32423125,28.125,56.14453125Q28.125,56.96483125,27.5977,57.49223125Q27.0703,58.01953125,26.25,58.01953125L3.75,58.01953125ZM24.375,43.95703125Q25.1953,43.95703125,25.7227,43.42973125Q26.25,42.90233125,26.25,42.08203125Q26.25,41.26172125,25.7227,40.73437125Q25.1953,40.20703125,24.375,40.20703125Q23.5547,40.20703125,23.0273,40.73437125Q22.5,41.26172125,22.5,42.08203125Q22.5,42.90233125,23.0273,43.42973125Q23.5547,43.95703125,24.375,43.95703125Z" fill="#000000" fill-opacity="1" style="mix-blend-mode:passthrough"/></g></g></g></g></svg>