<svg xmlns="http://www.w3.org/2000/svg" xmlns:xlink="http://www.w3.org/1999/xlink" fill="none" version="1.1" width="16" height="16" viewBox="0 0 16 16"><defs><clipPath id="master_svg0_1_216"><rect x="0" y="0" width="16" height="16" rx="0"/></clipPath></defs><g clip-path="url(#master_svg0_1_216)"><g transform="matrix(1,0,0,-1,0,30.6875)"><g><path d="M6.8125,27.03125L10.6562,23.1875L6.8125,27.03125L10.6562,23.1875Q11,22.84375,11,22.34375Q11,21.84375,10.6562,21.5L6.8125,17.65625Q6.5,17.34375,6.0625,17.34375Q5.625,17.34375,5.3125,17.65625Q5,17.96875,5,18.40625L5,20.34375L1,20.34375Q0.5625,20.34375,0.28125,20.625Q0,20.90625,0,21.34375L0,23.34375Q0,23.78125,0.28125,24.0625Q0.5625,24.34375,1,24.34375L5,24.34375L5,26.28125Q5,26.71875,5.3125,27.03125Q5.625,27.34375,6.0625,27.34375Q6.5,27.34375,6.8125,27.03125ZM11,17.34375L13,17.34375L11,17.34375L13,17.34375Q13.4375,17.34375,13.7188,17.625Q14,17.90625,14,18.34375L14,26.34375Q14,26.78125,13.7188,27.06255Q13.4375,27.34375,13,27.34375L11,27.34375Q10.5625,27.34375,10.2812,27.62495Q10,27.90625,10,28.34375Q10,28.78125,10.2812,29.06255Q10.5625,29.34375,11,29.34375L13,29.34375Q14.2812,29.31255,15.125,28.46875Q15.9688,27.62495,16,26.34375L16,18.34375Q15.9688,17.0625,15.125,16.21875Q14.2812,15.375,13,15.34375L11,15.34375Q10.5625,15.34375,10.2812,15.625Q10,15.90625,10,16.34375Q10,16.78125,10.2812,17.0625Q10.5625,17.34375,11,17.34375Z" fill="#FFFFFF" fill-opacity="1" style="mix-blend-mode:passthrough"/></g></g></g></svg>